<?xml version="1.0" encoding="UTF-8" standalone="no"?>
<!-- Generator: Adobe Illustrator 19.0.0, SVG Export Plug-In . SVG Version: 6.00 Build 0)  -->

<svg
   xmlns:dc="http://purl.org/dc/elements/1.1/"
   xmlns:cc="http://creativecommons.org/ns#"
   xmlns:rdf="http://www.w3.org/1999/02/22-rdf-syntax-ns#"
   xmlns:svg="http://www.w3.org/2000/svg"
   xmlns="http://www.w3.org/2000/svg"
   xmlns:sodipodi="http://sodipodi.sourceforge.net/DTD/sodipodi-0.dtd"
   xmlns:inkscape="http://www.inkscape.org/namespaces/inkscape"
   version="1.1"
   id="Layer_1"
   x="0px"
   y="0px"
   viewBox="0 0 512.001 512.001"
   style="enable-background:new 0 0 512.001 512.001;"
   xml:space="preserve"
   sodipodi:docname="logo.svg"
   inkscape:version="0.92.1 r"><metadata
     id="metadata43"><rdf:RDF><cc:Work
         rdf:about=""><dc:format>image/svg+xml</dc:format><dc:type
           rdf:resource="http://purl.org/dc/dcmitype/StillImage" /><dc:title></dc:title></cc:Work></rdf:RDF></metadata><defs
     id="defs41" /><sodipodi:namedview
     pagecolor="#ffffff"
     bordercolor="#666666"
     borderopacity="1"
     objecttolerance="10"
     gridtolerance="10"
     guidetolerance="10"
     inkscape:pageopacity="0"
     inkscape:pageshadow="2"
     inkscape:window-width="956"
     inkscape:window-height="1056"
     id="namedview39"
     showgrid="false"
     inkscape:zoom="0.46093662"
     inkscape:cx="336.27183"
     inkscape:cy="256.00049"
     inkscape:window-x="0"
     inkscape:window-y="20"
     inkscape:window-maximized="0"
     inkscape:current-layer="Layer_1" /><g
     id="g6"><g
       id="g4"><path
         d="M509.532,34.999c-2.292-2.233-5.678-2.924-8.658-1.764L5.213,225.734c-2.946,1.144-4.967,3.883-5.192,7.034    c-0.225,3.151,1.386,6.149,4.138,7.7l102.719,57.875l35.651,174.259c0.222,1.232,0.723,2.379,1.442,3.364    c0.072,0.099,0.131,0.175,0.191,0.251c1.256,1.571,3.037,2.668,5.113,3c0.265,0.042,0.531,0.072,0.795,0.088    c0.171,0.011,0.341,0.016,0.511,0.016c1.559,0,3.036-0.445,4.295-1.228c0.426-0.264,0.831-0.569,1.207-0.915    c0.117-0.108,0.219-0.205,0.318-0.306l77.323-77.52c3.186-3.195,3.18-8.369-0.015-11.555c-3.198-3.188-8.368-3.18-11.555,0.015    l-60.739,60.894l13.124-112.394l185.495,101.814c1.868,1.02,3.944,1.239,5.846,0.78c0.209-0.051,0.4-0.105,0.589-0.166    c1.878-0.609,3.526-1.877,4.574-3.697c0.053-0.094,0.1-0.179,0.146-0.264c0.212-0.404,0.382-0.8,0.517-1.202L511.521,43.608    C512.6,40.596,511.824,37.23,509.532,34.999z M27.232,234.712L432.364,77.371l-318.521,206.14L27.232,234.712z M162.72,316.936    c-0.764,0.613-1.429,1.374-1.949,2.267c-0.068,0.117-0.132,0.235-0.194,0.354c-0.496,0.959-0.784,1.972-0.879,2.986L148.365,419.6    l-25.107-122.718l275.105-178.042L162.72,316.936z M359.507,419.195l-177.284-97.307L485.928,66.574L359.507,419.195z"
         id="path2" /></g></g><g
     id="g8" /><g
     id="g10" /><g
     id="g12" /><g
     id="g14" /><g
     id="g16" /><g
     id="g18" /><g
     id="g20" /><g
     id="g22" /><g
     id="g24" /><g
     id="g26" /><g
     id="g28" /><g
     id="g30" /><g
     id="g32" /><g
     id="g34" /><g
     id="g36" /><g
     id="g3815"
     style="fill:#189efc"
     transform="matrix(0.10802175,-0.05226184,0.05226184,0.10802175,237.01218,286.28928)"><path
       id="path3789"
       d="M 500,0 A 500,500 0 0 0 0,500 500,500 0 0 0 500,1000 500,500 0 0 0 1000,500 500,500 0 0 0 500,0 Z m -2.5,271.1 h 107.24 c -20.56,14.471 -27.24,57.064 -27.24,78.927 v 202.145 c 0,43.726 -35.202,78.928 -80,78.928 -44.798,0 -80,-35.202 -80,-78.928 V 350.027 c 0,-43.725 35.202,-78.927 80,-78.927 z m -276,48.9 c 44.798,0 80,35.202 80,78.928 v 202.144 c 0,21.863 6.68,64.456 27.24,78.928 H 221.5 c -44.798,0 -80,-35.202 -80,-78.928 V 398.928 c 0,-43.726 35.202,-78.928 80,-78.928 z m 550.24,0 c 44.799,0 80,35.202 80,78.928 v 202.144 c 0,43.726 -35.201,78.928 -80,78.928 H 664.5 c 20.56,-14.472 27.24,-57.065 27.24,-78.928 V 398.928 c 0,-43.726 35.202,-78.928 80,-78.928 z"
       inkscape:connector-curvature="0" /><g
       id="g3797"
       transform="translate(-2)"><circle
         id="circle3791"
         r="27.5"
         cy="410.5"
         cx="223.5" /><circle
         id="circle3793"
         r="27.5"
         cy="500.5"
         cx="223.5" /><circle
         id="circle3795"
         r="27.5"
         cy="590.5"
         cx="223.5" /></g><g
       id="g3805"
       transform="matrix(1,0,0,-1,274,951)"><circle
         id="circle3799"
         r="27.5"
         cy="410.5"
         cx="223.5" /><circle
         id="circle3801"
         r="27.5"
         cy="500.5"
         cx="223.5" /><circle
         id="circle3803"
         r="27.5"
         cy="590.5"
         cx="223.5" /></g><g
       id="g3813"
       transform="matrix(-1,0,0,1,995,0)"><circle
         id="circle3807"
         r="27.5"
         cy="410.5"
         cx="223.5" /><circle
         id="circle3809"
         r="27.5"
         cy="500.5"
         cx="223.5" /><circle
         id="circle3811"
         r="27.5"
         cy="590.5"
         cx="223.5" /></g></g></svg>